<mxfile host="app.diagrams.net" modified="2022-12-20T22:04:14.017Z" agent="5.0 (Windows)" version="20.7.4" etag="O-YM4M_ThcdSIb9fOYFC" type="github">
  <diagram id="EVrbKENyEVnjGAG4AELT" name="Page-1">
    <mxGraphModel dx="989" dy="514" grid="1" gridSize="10" guides="1" tooltips="1" connect="1" arrows="1" fold="1" page="1" pageScale="1" pageWidth="827" pageHeight="1169" math="1" shadow="0">
      <root>
        <mxCell id="0" />
        <mxCell id="1" parent="0" />
        <mxCell id="rsoeOqy-VsgO8BAAmOL_-3" value="$$\xi$$" style="shape=trapezoid;perimeter=trapezoidPerimeter;whiteSpace=wrap;html=1;fixedSize=1;rotation=90;horizontal=0;fontSize=17;" vertex="1" parent="1">
          <mxGeometry x="159.07" y="257.19" width="96.87" height="37.5" as="geometry" />
        </mxCell>
        <mxCell id="rsoeOqy-VsgO8BAAmOL_-4" value="&lt;p style=&quot;line-height: 130%; font-size: 23px;&quot;&gt;&lt;/p&gt;&lt;div style=&quot;font-size: 23px;&quot;&gt;&lt;font style=&quot;font-size: 23px;&quot;&gt;Dynamics&lt;/font&gt;&lt;/div&gt;&lt;div style=&quot;font-size: 23px;&quot;&gt;&lt;font style=&quot;font-size: 23px;&quot;&gt;Engine&lt;/font&gt;&lt;/div&gt;&lt;p style=&quot;font-size: 23px;&quot;&gt;&lt;/p&gt;" style="rounded=1;whiteSpace=wrap;html=1;" vertex="1" parent="1">
          <mxGeometry x="285" y="230" width="165" height="150" as="geometry" />
        </mxCell>
        <mxCell id="rsoeOqy-VsgO8BAAmOL_-5" value="LiDAR Generator" style="shape=trapezoid;perimeter=trapezoidPerimeter;whiteSpace=wrap;html=1;fixedSize=1;fontSize=20;rotation=90;horizontal=0;direction=east;flipV=1;size=27.5;" vertex="1" parent="1">
          <mxGeometry x="520" y="257.19" width="130" height="95" as="geometry" />
        </mxCell>
        <mxCell id="rsoeOqy-VsgO8BAAmOL_-10" value="" style="endArrow=classic;html=1;rounded=0;fontSize=20;" edge="1" parent="1" source="rsoeOqy-VsgO8BAAmOL_-4" target="rsoeOqy-VsgO8BAAmOL_-5">
          <mxGeometry width="50" height="50" relative="1" as="geometry">
            <mxPoint x="435" y="345" as="sourcePoint" />
            <mxPoint x="485" y="295" as="targetPoint" />
          </mxGeometry>
        </mxCell>
        <mxCell id="rsoeOqy-VsgO8BAAmOL_-11" value="" style="endArrow=classic;html=1;rounded=0;fontSize=20;" edge="1" parent="1">
          <mxGeometry width="50" height="50" relative="1" as="geometry">
            <mxPoint x="225" y="270" as="sourcePoint" />
            <mxPoint x="285" y="270" as="targetPoint" />
          </mxGeometry>
        </mxCell>
        <mxCell id="rsoeOqy-VsgO8BAAmOL_-12" value="" style="endArrow=classic;html=1;rounded=0;fontSize=20;exitX=0.75;exitY=0;exitDx=0;exitDy=0;entryX=0;entryY=0.46;entryDx=0;entryDy=0;entryPerimeter=0;" edge="1" parent="1" source="rsoeOqy-VsgO8BAAmOL_-3" target="rsoeOqy-VsgO8BAAmOL_-4">
          <mxGeometry width="50" height="50" relative="1" as="geometry">
            <mxPoint x="225" y="283" as="sourcePoint" />
            <mxPoint x="290" y="300" as="targetPoint" />
          </mxGeometry>
        </mxCell>
        <mxCell id="rsoeOqy-VsgO8BAAmOL_-14" value="&lt;div&gt;LiDAR&lt;/div&gt;&lt;div&gt;\(x_t\)&lt;/div&gt;" style="text;html=1;align=center;verticalAlign=middle;resizable=0;points=[];autosize=1;strokeColor=none;fillColor=none;fontSize=20;" vertex="1" parent="1">
          <mxGeometry x="46.25" y="245" width="80" height="60" as="geometry" />
        </mxCell>
        <mxCell id="rsoeOqy-VsgO8BAAmOL_-15" value="" style="endArrow=classic;html=1;rounded=0;fontSize=20;" edge="1" parent="1" source="rsoeOqy-VsgO8BAAmOL_-14" target="rsoeOqy-VsgO8BAAmOL_-3">
          <mxGeometry width="50" height="50" relative="1" as="geometry">
            <mxPoint x="375" y="410" as="sourcePoint" />
            <mxPoint x="425" y="360" as="targetPoint" />
          </mxGeometry>
        </mxCell>
        <mxCell id="rsoeOqy-VsgO8BAAmOL_-16" value="&lt;div&gt;Action&lt;/div&gt;&lt;div&gt;\(a_t\)&lt;/div&gt;" style="text;html=1;align=center;verticalAlign=middle;resizable=0;points=[];autosize=1;strokeColor=none;fillColor=none;fontSize=20;" vertex="1" parent="1">
          <mxGeometry x="85" y="340" width="80" height="60" as="geometry" />
        </mxCell>
        <mxCell id="rsoeOqy-VsgO8BAAmOL_-17" value="" style="endArrow=classic;html=1;rounded=0;fontSize=20;" edge="1" parent="1">
          <mxGeometry width="50" height="50" relative="1" as="geometry">
            <mxPoint x="160" y="360" as="sourcePoint" />
            <mxPoint x="285" y="360" as="targetPoint" />
          </mxGeometry>
        </mxCell>
        <mxCell id="rsoeOqy-VsgO8BAAmOL_-18" value="&lt;div&gt;LiDAR&lt;/div&gt;&lt;div&gt;\(x_{t+1}\)&lt;/div&gt;" style="text;html=1;align=center;verticalAlign=middle;resizable=0;points=[];autosize=1;strokeColor=none;fillColor=none;fontSize=20;" vertex="1" parent="1">
          <mxGeometry x="677" y="290" width="110" height="60" as="geometry" />
        </mxCell>
        <mxCell id="rsoeOqy-VsgO8BAAmOL_-19" value="" style="endArrow=classic;html=1;rounded=0;fontSize=20;" edge="1" parent="1" source="rsoeOqy-VsgO8BAAmOL_-5">
          <mxGeometry width="50" height="50" relative="1" as="geometry">
            <mxPoint x="620" y="440" as="sourcePoint" />
            <mxPoint x="660" y="305" as="targetPoint" />
          </mxGeometry>
        </mxCell>
        <mxCell id="rsoeOqy-VsgO8BAAmOL_-21" value="" style="endArrow=classic;html=1;rounded=0;fontSize=20;exitX=1;exitY=0.867;exitDx=0;exitDy=0;exitPerimeter=0;" edge="1" parent="1" source="rsoeOqy-VsgO8BAAmOL_-4">
          <mxGeometry width="50" height="50" relative="1" as="geometry">
            <mxPoint x="463" y="360" as="sourcePoint" />
            <mxPoint x="590" y="360" as="targetPoint" />
            <Array as="points">
              <mxPoint x="510" y="360" />
              <mxPoint x="510" y="430" />
              <mxPoint x="590" y="430" />
            </Array>
          </mxGeometry>
        </mxCell>
        <mxCell id="rsoeOqy-VsgO8BAAmOL_-22" value="" style="curved=1;endArrow=classic;html=1;rounded=0;fontSize=20;" edge="1" parent="1" source="rsoeOqy-VsgO8BAAmOL_-4" target="rsoeOqy-VsgO8BAAmOL_-4">
          <mxGeometry width="50" height="50" relative="1" as="geometry">
            <mxPoint x="350" y="490" as="sourcePoint" />
            <mxPoint x="400" y="440" as="targetPoint" />
            <Array as="points">
              <mxPoint x="390" y="420" />
              <mxPoint x="340" y="420" />
            </Array>
          </mxGeometry>
        </mxCell>
        <mxCell id="rsoeOqy-VsgO8BAAmOL_-23" value="" style="endArrow=classic;dashed=1;html=1;dashPattern=1 3;strokeWidth=2;rounded=0;fontSize=20;startArrow=none;startFill=0;endFill=1;" edge="1" parent="1">
          <mxGeometry width="50" height="50" relative="1" as="geometry">
            <mxPoint x="732" y="260" as="sourcePoint" />
            <mxPoint x="86" y="220" as="targetPoint" />
            <Array as="points">
              <mxPoint x="732" y="160" />
              <mxPoint x="86" y="160" />
            </Array>
          </mxGeometry>
        </mxCell>
        <mxCell id="rsoeOqy-VsgO8BAAmOL_-26" value="&lt;div&gt;\(z^{theme}_{t+1}\)&lt;/div&gt;" style="text;html=1;align=center;verticalAlign=middle;resizable=0;points=[];autosize=1;strokeColor=none;fillColor=none;fontSize=20;" vertex="1" parent="1">
          <mxGeometry x="440" y="450" width="190" height="40" as="geometry" />
        </mxCell>
        <mxCell id="rsoeOqy-VsgO8BAAmOL_-27" value="&lt;div&gt;\(z^{content}_{t+1}\)&lt;/div&gt;" style="text;html=1;align=center;verticalAlign=middle;resizable=0;points=[];autosize=1;strokeColor=none;fillColor=none;fontSize=20;" vertex="1" parent="1">
          <mxGeometry x="390" y="265" width="200" height="40" as="geometry" />
        </mxCell>
        <mxCell id="rsoeOqy-VsgO8BAAmOL_-28" value="&lt;div&gt;\(z^{theme}_{t+1}\)&lt;/div&gt;" style="text;html=1;align=center;verticalAlign=middle;resizable=0;points=[];autosize=1;strokeColor=none;fillColor=none;fontSize=20;" vertex="1" parent="1">
          <mxGeometry x="159.07" y="300" width="190" height="40" as="geometry" />
        </mxCell>
        <mxCell id="rsoeOqy-VsgO8BAAmOL_-29" value="&lt;div&gt;\(z^{content}_{t+1}\)&lt;/div&gt;" style="text;html=1;align=center;verticalAlign=middle;resizable=0;points=[];autosize=1;strokeColor=none;fillColor=none;fontSize=20;" vertex="1" parent="1">
          <mxGeometry x="159.07" y="230" width="200" height="40" as="geometry" />
        </mxCell>
      </root>
    </mxGraphModel>
  </diagram>
</mxfile>
